<svg xmlns="http://www.w3.org/2000/svg" width="512" height="512" viewBox="0 0 512 512">
<rect x="0" y="0" width="512" height="512" rx="64" fill="#1f1f1f"/>
<rect x="24" y="24" width="464" height="336" rx="48" fill="#E74C3C"/>
<rect x="0" y="360" width="512" height="152" fill="#1f1f1f"/>
<text x="256.0" y="465" text-anchor="middle" font-family="DejaVu Sans, Arial, Helvetica, sans-serif" font-size="62" fill="#f2f2f2" letter-spacing="1">ANTIWOKISME</text>
<g><path d="M 165 150 H 347 C 372 150, 392 170, 392 195 V 265 C 392 290, 372 310, 347 310 H 245 L 205 350 V 310 H 165 C 140 310, 120 290, 120 265 V 195 C 120 170, 140 150, 165 150 Z" fill="none" stroke="#111" stroke-width="30" stroke-linecap="round" stroke-linejoin="round"/><path d="M 290 150 L 300 175 L 325 185 L 300 195 L 290 220 L 280 195 L 255 185 L 280 175 Z" fill="none" stroke="#111" stroke-width="18" stroke-linecap="round" stroke-linejoin="round"/><path d="M 340 210 L 346 226 L 362 232 L 346 238 L 340 254 L 334 238 L 318 232 L 334 226 Z" fill="none" stroke="#111" stroke-width="18" stroke-linecap="round" stroke-linejoin="round"/><line x1="145" y1="155" x2="390" y2="320" fill="none" stroke="#111" stroke-width="34" stroke-linecap="round" stroke-linejoin="round"/></g>
</svg>
